# xmcd
#
# Track frame offsets:
#	150
#	19242
#	37946
#	55472
#	75798
#	94916
#	114426
#	129199
#	144302
#	164107
#
# Disc length: 2469 seconds
#
# Revision: 3
# Processed by: cddbd v1.5.2PL0 Copyright (c) Steve Scherf et al.
# Submitted via: EasyCDDAExtractor 15.3.0.1
#
DISCID=7809a30a
DTITLE=Ricardo Montaner - Suma
DYEAR=2002
DGENRE=Latin
TTITLE0=Tu Cara
TTITLE1=Yo Puedo Hacer
TTITLE2=Respirando La Luna
TTITLE3=Verte Dormida
TTITLE4=Suma
TTITLE5=La Vida
TTITLE6=Ya No Vale La Pena
TTITLE7=Lloras
TTITLE8=Si Tuviera Que Elegir
TTITLE9=Urgente
EXTD=YEAR: 2002 ID3G: 116
EXTT0=
EXTT1=
EXTT2=
EXTT3=
EXTT4=
EXTT5=
EXTT6=
EXTT7=
EXTT8=
EXTT9=
PLAYORDER=
